<?xml version="1.0" encoding="utf-8"?>
<!-- Generator: Adobe Illustrator 18.1.1, SVG Export Plug-In . SVG Version: 6.00 Build 0)  -->
<svg version="1.1" id="Layer_1" xmlns="http://www.w3.org/2000/svg" xmlns:xlink="http://www.w3.org/1999/xlink" x="0px" y="0px"
	 viewBox="0 0 792 21" enable-background="new 0 0 792 21" xml:space="preserve">
<g id="Layer_3">
</g>
<g id="Layer_2">
</g>
<g id="Layer_1_1_">
	<g>
		<rect y="-0.4" fill="#30BA78" width="36.2" height="20.9"/>
		<rect x="63.4" y="-0.4" fill="#187480" width="12.3" height="20.9"/>
		<rect x="103" y="-0.4" fill="#FF9312" width="20.2" height="20.9"/>
		<rect x="150.5" y="-0.4" fill="#E6E6E6" width="24.4" height="20.9"/>
		<rect x="202.1" y="-0.4" fill="#30BA78" width="32.6" height="20.9"/>
		<rect x="261.9" y="-0.4" fill="#187480" width="9.6" height="20.9"/>
		<rect x="298.7" y="-0.4" fill="#FF9312" width="10.3" height="20.9"/>
		<rect x="336.4" y="-0.4" fill="#E6E6E6" width="50.3" height="20.9"/>
		<rect x="413.9" y="-0.4" fill="#30BA78" width="4.7" height="20.9"/>
		<rect x="445.9" y="-0.4" fill="#187480" width="27.8" height="20.9"/>
		<rect x="500.9" y="-0.4" fill="#FF9312" width="29.9" height="20.9"/>
		<rect x="558" y="-0.4" fill="#E6E6E6" width="14.6" height="20.9"/>
		<rect x="599.9" y="-0.4" fill="#30BA78" width="16.9" height="20.9"/>
		<rect x="644" y="-0.4" fill="#187480" width="6.4" height="20.9"/>
		<rect x="677.7" y="-0.4" fill="#FF9312" width="38" height="20.9"/>
		<rect x="742.8" y="-0.4" fill="#E6E6E6" width="16.4" height="20.9"/>
		<rect x="786.6" y="-0.4" fill="#30BA78" width="5.4" height="20.9"/>
	</g>
</g>
</svg>
